<?xml version="1.0" ?><svg viewBox="0 0 64 64" xmlns="http://www.w3.org/2000/svg"><g data-name="Layer 92" id="Layer_92"><path d="M38.12,60.5a.48.48,0,0,1-.37-.17L20.46,41a.5.5,0,0,1,0-.71.51.51,0,0,1,.71,0L38.12,59.25,55,40.33a.5.5,0,1,1,.75.67L38.49,60.33A.48.48,0,0,1,38.12,60.5Z"/><path d="M38.12,51.31a.48.48,0,0,1-.37-.17L20.46,31.81a.51.51,0,0,1-.08-.54.5.5,0,0,1,.45-.3h9.32c0-.53.06-1,.06-1.53,0-11.25-8.74-21.16-21.74-24.66a.5.5,0,0,1,.07-1,40,40,0,0,1,4.88-.3c18,0,32.61,12.09,32.61,27,0,.17,0,.34,0,.51H55.4a.51.51,0,0,1,.38.84L38.49,51.14A.48.48,0,0,1,38.12,51.31ZM22,32,38.12,50.06,54.29,32H45.5a.51.51,0,0,1-.36-.15.55.55,0,0,1-.14-.37h0c0-.33,0-.67,0-1,0-14.32-14.18-26-31.61-26-.74,0-1.49,0-2.24.06,12.08,4.16,20,13.9,20,24.88,0,.65,0,1.35-.1,2.08a.5.5,0,0,1-.5.45Z"/><path d="M38.12,45.3a.51.51,0,0,1-.37-.16L29.4,35.81a.51.51,0,0,1-.08-.54.5.5,0,0,1,.45-.3h4l.3-3.18c.07-.81.11-1.61.11-2.35A26.83,26.83,0,0,0,27,11.29a.5.5,0,0,1,0-.63.51.51,0,0,1,.61-.16C36.48,14.59,42,22.23,42,30.46c0,.26,0,.54,0,.8L41.87,35h4.59a.51.51,0,0,1,.46.3.51.51,0,0,1-.09.54l-8.34,9.33A.51.51,0,0,1,38.12,45.3ZM30.89,36l7.23,8.08L45.34,36h-4a.52.52,0,0,1-.36-.16.52.52,0,0,1-.14-.36L41,31.3c0-.33,0-.59,0-.84,0-7.15-4.44-13.86-11.73-18a27.46,27.46,0,0,1,5.91,16.93c0,.77,0,1.6-.12,2.45l-.33,3.63a.5.5,0,0,1-.5.45Z"/></g></svg>