<?xml version="1.0" ?><svg viewBox="0 0 64 64" xmlns="http://www.w3.org/2000/svg"><g data-name="Layer 94" id="Layer_94"><path d="M43.17,23.83a.51.51,0,0,1-.38-.16L25.88,4.75,9,23.67A.5.5,0,1,1,8.22,23L25.51,3.67a.5.5,0,0,1,.74,0L43.54,23a.5.5,0,0,1,0,.71A.5.5,0,0,1,43.17,23.83Z"/><path d="M50.58,60.5c-18,0-32.61-12.09-32.61-27,0-.17,0-.34,0-.51H8.6a.51.51,0,0,1-.38-.84L25.51,12.86a.51.51,0,0,1,.74,0L43.54,32.19a.51.51,0,0,1-.37.84H33.85c0,.53-.06,1-.06,1.53,0,11.25,8.74,21.16,21.74,24.66a.5.5,0,0,1-.07,1A40,40,0,0,1,50.58,60.5ZM9.71,32H18.5a.51.51,0,0,1,.36.15.55.55,0,0,1,.14.37h0c0,.33,0,.67,0,1,0,14.32,14.18,26,31.61,26,.74,0,1.49,0,2.24-.06-12.08-4.16-20-13.9-20-24.88,0-.65,0-1.35.1-2.08a.49.49,0,0,1,.5-.45h8.66L25.88,13.94Z"/><path d="M36.65,53.54a.49.49,0,0,1-.21,0C27.52,49.41,22,41.77,22,33.54c0-.26,0-.54,0-.8L22.13,29H17.54a.51.51,0,0,1-.46-.3.51.51,0,0,1,.09-.54l8.34-9.33a.51.51,0,0,1,.74,0l8.35,9.33a.51.51,0,0,1,.08.54.5.5,0,0,1-.45.3h-4l-.29,3.18c-.07.82-.11,1.61-.11,2.35A26.83,26.83,0,0,0,37,52.71a.5.5,0,0,1,0,.63A.51.51,0,0,1,36.65,53.54ZM18.66,28h4a.52.52,0,0,1,.36.16.52.52,0,0,1,.14.36L23,32.7c0,.33,0,.59,0,.84,0,7.15,4.44,13.86,11.73,18a27.46,27.46,0,0,1-5.91-16.93c0-.77,0-1.6.12-2.44l.33-3.64a.49.49,0,0,1,.5-.45h3.37L25.88,20Z"/></g></svg>