<?xml version="1.0" ?><svg viewBox="0 0 64 64" xmlns="http://www.w3.org/2000/svg"><g data-name="Layer 92" id="Layer_92"><path d="M55.74,40.29a.51.51,0,0,0-.71,0L38.12,59.25,21.21,40.33a.51.51,0,0,0-.71,0,.5.5,0,0,0,0,.71L37.75,60.33a.49.49,0,0,0,.74,0L55.78,41A.51.51,0,0,0,55.74,40.29Z"/><path d="M30.21,29.44c0,.48,0,1-.06,1.53H20.83a.5.5,0,0,0-.45.3.51.51,0,0,0,.08.54L37.75,51.14a.49.49,0,0,0,.74,0L55.78,31.81A.51.51,0,0,0,55.4,31H46c0-.17,0-.34,0-.51,0-14.87-14.63-27-32.61-27a40,40,0,0,0-4.88.3.5.5,0,0,0-.07,1C21.47,8.28,30.21,18.19,30.21,29.44ZM27,10.66a.51.51,0,0,1,.61-.16C36.48,14.59,42,22.23,42,30.46c0,.26,0,.54,0,.8L41.87,35h4.59a.51.51,0,0,1,.46.3.51.51,0,0,1-.09.54l-8.34,9.33a.51.51,0,0,1-.74,0L29.4,35.81a.51.51,0,0,1-.08-.54.5.5,0,0,1,.45-.3h4l.3-3.18c.07-.81.11-1.61.11-2.35A26.83,26.83,0,0,0,27,11.29.5.5,0,0,1,27,10.66Z"/></g></svg>